<?xml version="1.0" standalone="no"?>
<!DOCTYPE svg PUBLIC "-//W3C//DTD SVG 20010904//EN"
 "http://www.w3.org/TR/2001/REC-SVG-20010904/DTD/svg10.dtd">
<svg version="1.0" xmlns="http://www.w3.org/2000/svg"
 width="400.000000pt" height="400.000000pt" viewBox="0 0 400.000000 400.000000"
 preserveAspectRatio="xMidYMid meet">
<metadata>
Created by potrace 1.14, written by Peter Selinger 2001-2017
</metadata>
<g transform="translate(0.000000,400.000000) scale(0.100000,-0.100000)"
fill="#000000" stroke="none">
<path d="M1080 3640 c0 -6 -5 -8 -11 -4 -13 8 -61 -44 -53 -57 3 -5 1 -9 -4
-9 -6 0 -15 -13 -21 -30 -5 -16 -15 -30 -20 -30 -6 0 -11 -9 -11 -20 0 -11 -4
-20 -10 -20 -5 0 -10 -5 -10 -10 0 -6 -16 -35 -35 -65 -19 -30 -32 -55 -28
-55 3 0 -1 -8 -10 -18 -10 -10 -14 -22 -10 -25 3 -4 1 -7 -5 -7 -7 0 -12 -7
-12 -15 0 -7 -8 -19 -17 -24 -10 -6 -15 -11 -10 -11 8 0 -8 -31 -43 -85 -11
-16 -24 -39 -29 -51 -15 -34 -75 -129 -83 -132 -5 -2 -6 -8 -2 -13 3 -5 0 -9
-6 -9 -6 0 -8 -5 -5 -10 3 -6 -1 -13 -9 -16 -9 -3 -14 -10 -11 -14 3 -5 0 -14
-7 -22 -16 -17 -58 -87 -65 -110 -3 -10 -9 -18 -14 -18 -5 0 -9 -6 -9 -14 0
-7 -9 -25 -20 -38 -10 -14 -16 -28 -13 -32 3 -3 2 -6 -4 -6 -6 0 -16 -13 -22
-30 -5 -16 -15 -30 -21 -30 -6 0 -9 -4 -5 -9 3 -5 -2 -17 -11 -25 -8 -9 -12
-16 -7 -16 4 0 -1 -7 -12 -16 -11 -8 -18 -16 -15 -17 6 -3 -61 -120 -74 -129
-6 -4 -7 -8 -2 -8 5 0 3 -7 -4 -15 -17 -21 -49 -76 -56 -97 -4 -10 -11 -18
-16 -18 -5 0 -6 -4 -3 -10 3 -5 1 -10 -4 -10 -6 0 -11 -4 -11 -10 0 -5 -13
-31 -29 -58 -82 -139 -98 -177 -81 -192 12 -10 70 -110 70 -120 0 -6 4 -10 9
-10 5 0 11 -8 14 -17 8 -24 40 -76 52 -85 6 -4 6 -8 2 -8 -5 0 -2 -7 5 -15 22
-25 33 -40 35 -52 1 -6 16 -34 32 -61 16 -28 27 -53 24 -56 -4 -3 0 -6 8 -6 8
-1 29 -32 48 -70 19 -39 38 -70 43 -70 5 0 7 -4 4 -9 -3 -5 1 -14 9 -21 8 -7
15 -19 15 -26 0 -8 5 -14 10 -14 6 0 10 -4 10 -9 0 -5 23 -49 52 -98 28 -48
56 -98 62 -110 6 -13 14 -23 19 -23 4 0 7 -6 7 -13 0 -8 10 -18 23 -24 20 -9
1824 -12 1869 -3 9 2 19 14 22 26 4 13 17 40 31 60 14 20 25 43 25 50 0 8 5
14 10 14 6 0 10 7 10 16 0 9 5 12 13 8 6 -4 9 -4 5 1 -9 9 16 59 43 86 10 10
14 19 8 19 -6 0 -5 6 3 15 29 32 38 45 38 53 0 4 5 13 12 20 6 6 13 18 14 25
1 7 12 29 25 49 25 38 62 100 64 108 7 24 30 58 36 54 5 -3 9 -1 9 3 0 7 331
10 373 4 14 -2 7 -20 -38 -95 -25 -42 -45 -81 -45 -86 0 -6 -4 -10 -9 -10 -5
0 -11 -8 -14 -17 -3 -10 -22 -45 -42 -78 -19 -33 -40 -70 -45 -83 -5 -12 -14
-28 -20 -35 -16 -18 -80 -128 -80 -137 0 -4 -7 -13 -15 -20 -8 -7 -13 -16 -10
-20 3 -4 -2 -13 -10 -20 -8 -7 -15 -19 -15 -26 0 -8 -4 -14 -8 -14 -5 0 -14
-16 -22 -35 -8 -19 -17 -35 -21 -35 -4 0 -12 -13 -18 -30 -5 -16 -15 -30 -20
-30 -6 0 -10 -3 -9 -7 4 -14 -52 -113 -63 -113 -5 0 -8 -4 -4 -9 3 -5 -2 -16
-10 -24 -8 -9 -15 -20 -15 -26 0 -14 110 -12 -958 -11 -502 0 -917 -2 -922 -5
-8 -5 20 -56 49 -91 5 -6 18 -29 28 -50 25 -51 46 -88 55 -94 3 -3 8 -12 10
-20 2 -8 7 -19 11 -25 4 -5 14 -19 22 -30 13 -20 25 -20 941 -21 l929 0 20 22
c41 46 78 108 68 118 -3 3 0 6 9 6 8 0 15 6 15 13 0 6 14 36 32 65 17 29 31
57 31 63 0 6 5 7 12 3 6 -4 8 -3 5 3 -3 5 1 20 10 32 9 13 29 49 46 80 27 51
78 140 116 201 9 14 16 28 16 32 0 4 8 17 18 28 9 11 17 27 17 35 0 9 7 18 15
21 8 4 12 10 10 15 -3 4 4 18 15 29 11 11 18 25 15 30 -4 6 -1 10 4 10 6 0 11
6 11 14 0 8 7 17 16 20 8 3 13 10 10 15 -4 5 0 16 8 23 7 8 23 33 35 55 11 23
25 45 31 48 6 4 8 10 6 14 -3 4 4 18 15 29 11 12 17 22 14 22 -4 0 3 13 14 29
11 15 18 31 14 35 -3 3 -1 6 5 6 6 0 17 12 24 27 21 41 42 77 49 83 3 3 12 20
20 38 8 17 18 32 23 32 4 0 6 7 3 14 -4 9 2 17 13 21 11 3 19 9 19 13 -4 24 4
43 25 63 13 13 22 29 19 36 -3 7 0 13 6 13 6 0 11 4 11 9 0 18 68 120 75 113
5 -4 5 -1 1 6 -4 7 -3 19 3 26 9 11 5 15 -19 18 -16 3 -30 1 -30 -4 0 -5 -8
-4 -18 1 -10 5 -24 6 -32 1 -7 -4 -22 -5 -34 -1 -11 5 -35 5 -53 1 -18 -5 -35
-4 -38 1 -3 4 -17 4 -30 -1 -14 -5 -25 -6 -25 -2 0 9 -65 6 -80 -3 -6 -3 -10
-3 -10 2 0 4 -36 8 -79 8 -44 0 -77 -3 -74 -7 2 -5 -7 -4 -20 1 -16 6 -28 6
-36 -2 -6 -6 -11 -7 -11 -1 0 5 -29 9 -65 9 -36 0 -65 -2 -65 -5 0 -3 -13 -5
-30 -5 -16 0 -30 2 -30 5 0 3 -18 5 -40 5 -22 0 -40 -4 -40 -8 0 -5 -5 -5 -12
-1 -15 9 -78 12 -78 3 0 -3 -20 -3 -45 1 -25 4 -48 3 -51 -2 -3 -4 -10 -5 -16
-2 -13 8 -138 11 -138 4 0 -3 -11 -5 -25 -5 -14 0 -25 2 -25 5 0 3 -11 5 -25
5 -14 0 -25 -4 -25 -8 0 -5 -5 -5 -12 -1 -15 9 -128 11 -128 3 0 -4 -15 -3
-34 1 -22 5 -39 3 -45 -3 -7 -7 -11 -8 -11 -1 0 12 -29 12 -48 0 -6 -4 -12 -3
-12 2 0 12 -93 9 -102 -3 -5 -7 -11 -7 -15 0 -9 12 -52 13 -70 2 -7 -5 -13 -5
-13 0 0 4 -29 8 -65 8 -36 0 -65 -3 -65 -7 0 -4 -12 -3 -26 2 -16 7 -23 7 -19
0 4 -6 -2 -7 -17 -2 -28 10 -169 9 -185 -1 -8 -5 -4 -21 14 -52 13 -25 29 -47
34 -51 5 -3 7 -10 4 -15 -4 -5 -1 -9 5 -9 6 0 8 -4 5 -10 -3 -5 -1 -10 4 -10
6 0 11 -7 11 -15 0 -8 5 -15 10 -15 6 0 10 -5 10 -10 0 -6 11 -28 25 -50 14
-22 23 -40 20 -40 -3 0 4 -11 16 -24 l20 -23 315 1 c173 1 320 -2 327 -6 8 -5
9 -8 1 -8 -10 0 -23 -25 -28 -53 0 -4 -8 -12 -16 -17 -8 -5 -11 -10 -7 -10 5
0 -1 -13 -12 -29 -12 -16 -21 -34 -21 -40 0 -6 -4 -11 -10 -11 -5 0 -10 -4
-10 -10 0 -5 -14 -32 -30 -59 -28 -46 -33 -49 -68 -46 -20 1 -45 -2 -56 -7
-10 -6 -16 -6 -13 -1 6 10 -274 10 -291 0 -6 -4 -13 -3 -17 3 -3 5 -11 10 -16
10 -6 0 -7 -5 -3 -12 5 -7 3 -8 -7 -2 -20 12 -200 13 -192 1 4 -6 1 -7 -8 -1
-8 4 -23 7 -34 6 -27 -4 -56 22 -84 73 -12 22 -33 58 -46 80 -14 22 -27 48
-31 58 -3 9 -11 17 -16 17 -5 0 -6 5 -3 10 3 6 1 10 -5 10 -6 0 -8 5 -5 10 3
6 2 10 -3 10 -4 0 -14 16 -22 35 -8 19 -17 35 -21 35 -4 0 -11 9 -14 21 -4 12
-18 37 -31 56 -13 20 -21 39 -18 44 3 5 1 9 -5 9 -6 0 -23 27 -39 60 -16 32
-33 56 -37 52 -5 -4 -5 1 -2 11 4 9 2 17 -2 17 -14 0 -7 49 7 55 7 3 10 9 7
15 -3 5 -2 10 3 10 5 0 15 14 22 30 7 17 16 30 21 30 5 0 9 6 9 13 0 6 16 37
34 67 19 30 32 58 30 62 -3 4 -1 8 3 8 12 0 44 56 36 64 -3 3 -2 6 4 6 6 0 16
13 22 30 5 17 15 30 20 30 6 0 10 3 9 8 -2 9 13 45 22 52 3 3 19 28 35 55 15
28 33 53 39 57 6 4 7 8 2 8 -5 0 1 11 14 25 12 13 27 22 33 18 5 -3 51 -5 101
-4 311 7 736 5 740 -4 3 -7 5 -7 5 0 1 7 173 9 501 7 275 -1 500 1 500 6 0 14
-25 62 -32 62 -5 0 -8 5 -8 11 0 6 -12 29 -27 52 -16 23 -37 60 -48 82 -11 22
-26 46 -32 53 -7 7 -13 17 -13 21 0 4 -9 18 -20 31 -13 15 -20 18 -20 9 0 -8
-3 -10 -8 -4 -4 6 -27 10 -52 10 -25 0 -48 -4 -52 -10 -5 -6 -8 -6 -8 1 0 7
-16 10 -42 7 -24 -2 -47 -4 -53 -4 -5 0 -20 2 -32 5 -14 3 -23 0 -23 -7 0 -8
-3 -9 -8 -1 -8 11 -51 12 -70 0 -6 -3 -13 -3 -15 1 -4 7 -101 8 -117 2 -3 -1
-9 0 -15 1 -30 7 -165 5 -165 -2 0 -5 -10 -4 -21 3 -17 9 -20 8 -14 -2 5 -8 4
-10 -3 -5 -20 12 -51 15 -57 5 -4 -5 -11 -6 -17 -2 -16 9 -128 11 -128 1 0 -4
-11 -3 -24 2 -15 5 -27 5 -35 -3 -6 -6 -11 -7 -11 -1 0 13 -93 12 -102 -1 -5
-7 -8 -7 -8 0 0 11 -65 13 -76 3 -3 -4 -16 -3 -28 1 -27 9 -228 7 -244 -3 -7
-4 -12 -4 -12 1 0 4 -92 8 -205 8 -113 0 -205 -4 -205 -8 0 -5 -4 -6 -8 -3
-11 6 -53 -40 -45 -48 3 -3 -5 -20 -19 -38 -13 -18 -31 -48 -39 -65 -8 -18
-17 -33 -21 -33 -5 0 -8 -6 -8 -14 0 -8 -6 -21 -13 -28 -7 -7 -21 -30 -30 -50
-10 -21 -21 -38 -26 -38 -4 0 -8 -6 -8 -13 0 -6 -12 -31 -26 -54 -15 -24 -27
-47 -27 -52 0 -6 -8 -15 -17 -20 -10 -6 -15 -11 -11 -11 6 0 -123 -231 -143
-256 -5 -6 -6 -14 -2 -17 3 -4 2 -7 -4 -7 -9 0 -37 -50 -33 -58 1 -2 -8 -12
-20 -22 -12 -10 -21 -22 -21 -27 1 -15 -23 -62 -30 -57 -14 8 -16 -36 -3 -60
7 -14 11 -26 8 -26 -3 0 0 -6 6 -13 22 -25 59 -87 53 -87 -3 0 2 -9 12 -20 10
-11 14 -20 10 -20 -4 0 1 -8 11 -17 10 -10 20 -25 22 -33 2 -8 7 -17 10 -20 4
-3 16 -22 27 -42 11 -21 24 -38 29 -38 5 0 6 -3 3 -6 -4 -4 3 -20 14 -35 11
-16 18 -29 15 -29 -3 0 1 -8 9 -17 8 -10 14 -21 13 -25 -2 -4 5 -13 15 -20 9
-7 19 -23 22 -36 2 -12 11 -29 19 -38 9 -8 19 -26 22 -40 3 -13 11 -24 18 -25
6 0 2 -4 -9 -8 -11 -4 -69 -7 -130 -6 -71 1 -113 -2 -117 -9 -6 -8 -8 -8 -8 1
0 8 -18 10 -56 8 -61 -3 -84 11 -110 72 -7 17 -19 37 -26 45 -13 14 -16 18
-59 98 -13 25 -26 47 -29 50 -7 7 -48 80 -68 120 -9 19 -23 39 -29 43 -7 4
-13 13 -13 19 0 7 -18 42 -40 79 -22 37 -40 75 -40 83 0 9 -6 16 -12 16 -9 0
-10 2 -2 8 7 4 22 25 35 47 12 22 33 58 45 80 13 22 35 60 49 85 14 25 34 59
44 75 10 17 16 33 14 38 -2 4 1 7 7 7 9 0 34 48 30 59 -1 2 5 8 14 13 9 5 14
13 11 19 -4 5 -1 9 4 9 6 0 11 7 11 15 0 8 3 15 8 15 4 0 16 20 27 45 11 25
22 45 25 45 3 0 16 21 30 48 13 26 36 66 52 88 15 23 24 44 21 48 -4 3 -2 6 4
6 6 0 13 8 16 18 4 9 17 35 31 57 23 37 52 88 81 142 7 13 15 19 19 15 4 -4 6
-2 5 3 -5 13 24 75 34 75 5 0 6 4 3 8 -3 5 4 19 15 30 11 12 17 22 14 22 -4 0
3 13 14 29 12 16 21 32 21 35 0 4 9 16 20 28 10 12 17 24 15 28 -3 5 3 18 13
30 20 24 82 35 94 17 5 -7 8 -8 8 -2 0 12 1214 14 1226 3 4 -4 14 -4 23 0 9 4
136 8 282 7 208 0 266 2 266 12 0 7 -3 11 -5 8 -3 -3 -17 20 -32 50 -15 30
-29 53 -32 50 -6 -6 -23 44 -19 58 1 5 -3 6 -8 3 -5 -4 -13 4 -17 16 -4 13 -9
25 -13 28 -3 3 -17 26 -31 52 -24 47 -43 63 -61 52 -5 -3 -9 -1 -9 3 0 5 -9 9
-20 9 -11 0 -20 -3 -20 -7 0 -3 -12 -5 -27 -3 -41 6 -134 6 -139 1 -3 -3 -21
-1 -40 3 -18 4 -34 5 -34 1 0 -3 -16 -6 -35 -6 -19 0 -35 3 -35 6 0 4 -17 3
-37 -1 -22 -5 -44 -5 -55 1 -12 7 -18 6 -18 -1 0 -6 -5 -8 -11 -5 -15 10 -59
13 -59 5 0 -4 -13 -7 -30 -6 -16 1 -30 4 -30 7 0 4 -16 3 -36 -1 -19 -5 -48
-5 -64 0 -16 4 -30 6 -33 4 -9 -9 -73 -10 -84 -1 -9 6 -13 6 -13 -1 0 -7 -10
-8 -29 -2 -16 4 -32 6 -35 3 -4 -5 -159 -7 -182 -2 -5 1 -13 0 -19 -1 -29 -6
-115 -4 -115 3 0 5 -5 5 -12 1 -15 -9 -60 -10 -74 -1 -5 3 -16 2 -23 -2 -7 -5
-30 -5 -52 -1 -22 4 -42 3 -45 -2 -3 -5 -14 -6 -25 -3 -10 3 -40 6 -66 5 -53
-1 -125 -1 -175 0 -18 0 -42 -1 -53 -3 -11 -3 -25 0 -32 5 -7 5 -14 5 -18 -2
-4 -7 -12 -7 -26 0 -13 8 -19 7 -19 0z"/>
</g>
</svg>
