<?xml version="1.0" standalone="no"?>
<!DOCTYPE svg PUBLIC "-//W3C//DTD SVG 20010904//EN"
 "http://www.w3.org/TR/2001/REC-SVG-20010904/DTD/svg10.dtd">
<svg version="1.0" xmlns="http://www.w3.org/2000/svg"
 width="524.000000pt" height="476.000000pt" viewBox="0 0 524.000000 476.000000"
 preserveAspectRatio="xMidYMid meet">

<g transform="translate(0.000000,476.000000) scale(0.100000,-0.100000)"
fill="#000" stroke="none">
<path d="M130 4275 l0 -225 323 0 323 0 228 -597 c126 -329 367 -961 537
-1405 170 -444 316 -831 325 -860 9 -29 19 -64 23 -78 l8 -25 179 -7 c156 -6
600 -15 2397 -45 213 -3 387 -3 387 2 0 16 -63 240 -70 248 -4 4 -295 26 -646
47 -1606 100 -1886 118 -1894 126 -7 8 -180 449 -180 460 0 2 632 4 1404 4
814 0 1407 4 1410 9 3 5 26 186 51 402 24 217 65 570 90 784 69 589 79 684 73
690 -3 3 -83 6 -179 8 l-174 2 -12 -100 c-7 -55 -37 -316 -68 -580 -30 -264
-65 -562 -77 -662 l-21 -183 -1322 0 -1321 0 -217 563 c-120 309 -311 805
-425 1102 l-208 540 -472 3 -472 2 0 -225z"/>
<path d="M1725 950 c-112 -38 -193 -116 -236 -229 -32 -86 -25 -204 18 -292
39 -79 102 -140 181 -177 49 -23 70 -27 152 -27 88 0 101 3 162 33 136 67 212
188 211 337 0 105 -27 176 -94 250 -101 110 -256 151 -394 105z"/>
<path d="M4521 880 c-105 -22 -195 -93 -239 -188 -22 -48 -27 -71 -26 -142 0
-74 4 -93 29 -143 33 -67 97 -130 163 -160 37 -17 66 -22 137 -22 78 0 97 4
147 28 150 73 220 253 164 417 -26 75 -120 170 -191 193 -68 22 -131 27 -184
17z"/>
</g>
</svg>
